<svg xmlns="http://www.w3.org/2000/svg" xmlns:xlink="http://www.w3.org/1999/xlink" width="376" height="130" xmlns:v="https://vecta.io/nano"><defs><path id="A" d="M0 .2h114.26v97.106H0z"/><path id="B" d="M.227.167h18.34v25.32H.227z"/><path id="C" d="M.268.503h17.07V19.62H.268z"/></defs><g transform="translate(126 8)" fill-rule="evenodd" fill="none"><g transform="translate(0 .584)"><mask id="D" fill="#fff"><use xlink:href="#A"/></mask><path mask="url(#D)" d="M111.4 44.8c-.4-.235-.86-.4-1.3-.587L9.2 1.115C6.605.001 4.1-.315 1.696 1.436-.648 3.136.024 5.494.324 7.794l3.6 28.047c.567 4.507 1.592 9.042 1.44 13.53-.19 5.633-1.377 11.232-2.134 16.845-.035.555-.04 1.113-.11 1.664L.117 91.256c-.478 3.812 1.604 6.04 5.496 6.05 1.245.004 2.345-.42 3.448-.89L52.43 77.86l30.194-12.75 11.8-5.2 16.525-7.094c1.84-.775 3.2-1.91 3.3-3.992.1-2.022-1.27-3.122-2.85-4.017" fill="#820a0d"/></g><path d="M5.443 50.13c-.19 5.633-1.377 11.232-2.134 16.845-.035.555-.04 1.113-.11 1.664L.194 92.014c-.478 3.812 1.605 6.04 5.496 6.05 1.245.004 2.345-.42 3.45-.892L52.508 78.62l30.194-12.75 11.802-5.2 16.526-7.094c1.84-.775 3.18-1.912 3.3-3.992l-108.9.556z" fill="#d40226"/><g transform="translate(105.16 88.483)"><mask id="E" fill="#fff"><use xlink:href="#B"/></mask><path mask="url(#E)" d="M6.147 8.98c2.13-1.18 3.86-2.265 6.065-2.213 3.847.1 6.115 1.94 6.276 5.73.163 3.83.016 7.67.07 11.504.013 1.033-.334 1.313-1.362 1.378-4.486.283-4.46.322-4.494-4.054a182.83 182.83 0 0 0-.224-7.176c-.106-2.248-1.56-2.743-3.5-2.52-1.724.2-3.025.643-2.896 2.896.173 3.026-.024 6.072.064 9.106.04 1.358-.402 1.74-1.756 1.754-4.12.05-4.12.1-4.122-3.917L.228 2.293C.2.575.72-.02 2.38.217a6.98 6.98 0 0 0 1.919 0c1.5-.21 1.95.42 1.876 1.877-.11 2.15-.028 4.308-.028 6.887" fill="#a7a9ac"/></g><path d="M67.043 106l.013 5.27c.023.9-.47 1.22-1.2 1.54-4.317 1.85-8.705 2.14-13.06.33-5.602-2.34-8.066-9.54-5.715-16.254 1.645-4.69 5.467-7.33 11.1-7.51a20.08 20.08 0 0 1 4.537.381c4.24.852 5.172 2.386 4.373 6.65-.193 1.028-.573.99-1.247.472-1.143-.875-2.303-1.716-3.674-2.23-4.408-1.648-8.634.85-9.172 5.5-.386 3.32-.1 6.6 3.1 8.47 3.224 1.9 6.332.9 9.15-1.25l1.814-1.36m13.196 1.27c-.036-.9.33-1.9-1.34-1.8-3.2.18-5.212 1.2-5.034 2.88.174 1.65 1.41 1.9 2.796 1.9 2.584 0 3.583-.8 3.578-2.98m5.758-.42c-.003 1.03.112 2.1-.032 3.1-.18 1.27.787 3.35-.565 3.64-1.606.33-3.842 1.4-5.304-.86-.46-.7-.944.1-1.365.34-1.943 1.16-4.035 1.48-6.233 1.07-2.366-.45-4.396-2.47-4.674-4.58-.347-2.63.864-4.92 3.28-6.08 2.283-1.1 4.766-1.26 7.24-1.46.57-.05 1.476.3 1.63-.56.163-.9-.544-1.473-1.35-1.734-2.294-.745-4.535-.436-6.826.2-.65.184-2.16 1.704-2.316-.26-.104-1.28-1.4-3.454 1.514-3.92 3.507-.563 7-.86 10.47-.018 3.17.77 4.407 2.384 4.522 5.6.065 1.83.012 3.67.01 5.5" fill="#a7a9ac"/><g transform="translate(86.33 94.761)"><mask id="F" fill="#fff"><use xlink:href="#C"/></mask><path mask="url(#F)" d="M9.887.534c1.7-.14 3.408.232 5.126.63 1.142.264 1.684.775 1.67 2.104-.03 3.19.057 3.197-2.953 2-1.898-.755-3.83-1.16-5.847-.555-.59.177-1.297.336-1.293 1.187.005.82.678 1.092 1.267 1.24l5.144 1.124c2.348.578 4.075 1.78 4.308 4.45.22 2.523-.877 4.612-3.438 5.7-4.18 1.792-8.414 1.38-12.65.023-1.168-.374-.868-1.21-.843-1.927.034-.997-.427-2.136.308-2.957.432-.484 1 .2 1.465.458 2.245 1.196 4.62 1.767 7.165 1.5.905-.09 1.9-.306 1.96-1.376.07-1.05-1-1.14-1.725-1.325-1.623-.413-3.31-.595-4.908-1.08C1.91 10.916.556 9.25.465 6.842.368 4.27 1.843 2.705 3.965 1.595 5.793.638 7.77.448 9.887.534" fill="#a7a9ac"/></g><path d="M34.58 60.582c-4.327-.107-3.592.316-3.634-3.522l-.007-9.165-.62-.082-2.607 8.013c-.513 1.97-1.607 2.406-3.474 2.382-1.816-.025-3.02-.338-3.54-2.335-.674-2.59-1.63-5.105-2.463-7.65l-.683.045c0 3.35-.1 6.707.04 10.054.075 1.796-.467 2.54-2.28 2.23-1.422-.242-3.477.927-3.417-2.12.123-6.22.43-12.426.75-18.635.073-1.403.62-2.07 2.025-2.038.72.018 1.453.08 2.16-.015 2.45-.33 3.606.736 4.154 3.125.8 3.445 1.92 6.812 2.903 10.212l.563.026 3.135-10.384c.77-2.564 5.345-4.194 7.58-2.71.64.425.63 1.066.662 1.697l.902 18.88c.086 1.628-.643 2.033-2.153 1.995m18.5-8.022c-.167 1.978-.978 3.308-3.255 3.264-2.263-.043-3.31-.924-3.43-3.344-.112-2.295-.09-4.603-.013-6.902.07-2.11 1.32-3.188 3.393-3.182 2.1.006 3.204 1.18 3.32 3.264l.16 3.405-.177 3.495m6.3-3.376c-.017-1.993-.005-3.985-.492-5.943-.744-2.992-2.527-4.947-5.617-5.503-2.454-.44-4.923-.464-7.38.095-2.885.658-4.646 2.5-5.248 5.3-.848 3.932-.868 7.92-.08 11.875.385 1.938 1.325 3.57 3.105 4.626 7.443 4.42 15.418.22 15.71-8.286.026-.718.004-1.437.003-2.154m21.248 11.3c-1.493.227-3.226.57-4.388-1.1l-6.276-8.783c-.304-.42-.438-1.044-1.31-1.113 0 3.11-.107 6.196.037 9.27.1 2.125-1.242 1.913-2.494 1.762-1.193-.144-3.1.95-3.073-1.673l.06-19.427c.002-.707-.137-1.577.915-1.61 1.547-.048 3.23-.56 4.354 1.154l5.612 8.365c.438.65.914 1.275 1.373 1.9l.62-.106c0-3.086.16-6.182-.05-9.253-.176-2.578 1.462-2.082 2.937-2.158 1.606-.084 2.675-.006 2.614 2.217-.16 5.91.01 11.83-.048 17.745-.01.964.753 2.54-.882 2.788" fill="#fcfcfc"/></g></svg>