<svg xmlns="http://www.w3.org/2000/svg" xmlns:xlink="http://www.w3.org/1999/xlink" width="119" height="53" xmlns:v="https://vecta.io/nano"><defs><path id="A" d="M0 .08h46.07v39.156H0z"/><path id="B" d="M.09.067h7.396v10.2H.09z"/><path id="C" d="M.108.203H6.99V7.91H.108z"/></defs><g fill-rule="evenodd" fill="none"><rect fill-rule="nonzero" width="119" fill="#e4002b" rx="2" height="52.889"/><g transform="translate(35 3)"><g transform="translate(0 .235)"><mask id="D" fill="#fff"><use xlink:href="#A"/></mask><path mask="url(#D)" d="M44.92 18.064c-.167-.095-.35-.16-.528-.237L3.706.45C2.663.001 1.657-.127.684.58-.26 1.264.01 2.215.13 3.143l1.452 11.31c.228 1.817.642 3.646.58 5.456-.077 2.272-.555 4.53-.86 6.793l-.045.67-1.21 9.426c-.193 1.537.647 2.436 2.216 2.44.502.001.946-.17 1.4-.36l17.487-7.48 12.175-5.14 4.758-2.1 6.665-2.86c.742-.313 1.283-.77 1.33-1.6.045-.815-.512-1.26-1.147-1.62" fill="#fff"/></g><path d="M2.195 20.214c-.077 2.27-.555 4.53-.86 6.792l-.045.67-1.21 9.425c-.193 1.538.647 2.436 2.216 2.44.502.002.946-.168 1.39-.36L21.173 31.7l12.174-5.14 4.76-2.1 6.664-2.86c.742-.312 1.284-.77 1.33-1.6l-43.905.225z" fill="#dfdfdd"/><g transform="translate(42.405 35.678)"><mask id="E" fill="#fff"><use xlink:href="#B"/></mask><path mask="url(#E)" d="M2.48 3.62c.86-.475 1.556-.913 2.446-.892 1.55.036 2.466.782 2.53 2.3l.028 4.64c.005.416-.135.53-.55.556-1.81.113-1.798.13-1.812-1.635l-.1-2.893C4.988 4.8 4.402 4.6 3.624 4.69c-.695.08-1.22.26-1.168 1.168.07 1.22-.01 2.448.026 3.672.016.548-.162.702-.708.708-1.662.02-1.66.044-1.662-1.58L.092.925C.08.232.29-.008.96.088c.253.036.52.035.774 0 .61-.085.787.17.756.757l-.01 2.777" fill="#fff"/></g><path d="M27.034 42.745l.005 2.125c.01.36-.2.494-.484.62-1.74.748-3.5.865-5.266.132-2.26-.943-3.252-3.845-2.304-6.552.663-1.892 2.204-2.956 4.47-3.03.61-.02 1.233.034 1.83.154 1.7.343 2.086.962 1.763 2.682-.077.414-.23.398-.502.2-.462-.353-.93-.692-1.482-.898-1.777-.665-3.48.343-3.7 2.213-.155 1.34-.044 2.656 1.247 3.414 1.3.764 2.553.36 3.69-.5l.732-.55m5.32.513c-.015-.363.133-.77-.54-.73-1.3.075-2.102.48-2.03 1.162.07.667.57.768 1.128.77 1.042.002 1.444-.327 1.443-1.2m2.32-.17c-.001.418.045.843-.013 1.253-.072.512.318 1.35-.227 1.465-.648.136-1.55.567-2.14-.344-.186-.288-.38.036-.55.137-.783.467-1.627.596-2.513.43-.954-.18-1.772-.997-1.884-1.844-.14-1.06.348-1.987 1.32-2.455.92-.442 1.923-.505 2.92-.588.23-.02.596.122.658-.224.065-.364-.22-.595-.544-.7-.925-.3-1.83-.176-2.753.085-.262.074-.87.687-.934-.105-.042-.516-.56-1.392.61-1.58 1.414-.227 2.822-.347 4.22-.008 1.28.31 1.777.962 1.824 2.26l.003 2.22" fill="#fff"/><g transform="translate(34.81 38.21)"><mask id="F" fill="#fff"><use xlink:href="#C"/></mask><path mask="url(#F)" d="M3.987.215C4.668.158 5.36.31 6.054.47c.46.107.68.312.674.848-.012 1.287.023 1.29-1.19.806-.765-.304-1.545-.468-2.358-.224-.238.07-.523.135-.52.478.002.33.273.44.51.5l2.074.453c.947.233 1.643.718 1.737 1.795.09 1.017-.354 1.86-1.386 2.302-1.686.723-3.393.557-5.1.01-.47-.15-.35-.487-.34-.777.014-.402-.172-.86.124-1.192.174-.195.404.085.59.185.905.482 1.862.713 2.89.61.365-.037.762-.123.79-.555.028-.423-.403-.46-.696-.534l-1.98-.436C.77 4.402.224 3.73.188 2.76.148 1.722.743 1.09 1.6.643 2.336.257 3.134.18 3.987.215" fill="#fff"/></g><path d="M12.478 23.008l-.003-3.695-.25-.034-1.052 3.23c-.206.795-.647.97-1.4.96-.733-.01-1.218-.136-1.427-.942-.27-1.044-.657-2.058-.993-3.085l-.275.02.016 4.053c.03.725-.19 1.024-.92.9-.573-.097-1.402.374-1.378-.855l.303-7.514c.03-.566.25-.835.816-.822.29.007.586.033.872-.006.988-.133 1.454.297 1.675 1.26.318 1.39.773 2.747 1.17 4.118l.227.01 1.264-4.187c.31-1.034 2.155-1.69 3.057-1.092.258.17.254.43.266.684l.364 7.613c.035.656-.26.82-.868.804-1.745-.043-1.448.128-1.465-1.42z" fill="#e4002b"/><path d="M7.073 20l.004-.622.016 4.054c.03.724-.19 1.023-.92.9-.573-.098-1.402.373-1.378-.856L4.906 20h2.167zm7.738 3.54c.035.657-.26.82-.868.805-1.745-.044-1.448.127-1.465-1.42L12.474 20h2.163l.174 3.54zm-3.638-1.113c-.206.795-.647.97-1.4.96-.733-.01-1.218-.136-1.427-.94-.215-.827-.5-1.634-.778-2.445h1.915l.15.51.227.01.157-.52h1.932l-.776 2.425z" fill="#d10926"/><path d="M20.086 22.5c-.912-.018-1.335-.373-1.382-1.35l-.005-2.783c.028-.85.53-1.285 1.368-1.283.85.003 1.292.476 1.338 1.316l.065 1.373-.07 1.41c-.068.798-.394 1.335-1.313 1.317zm3.655-5.074c-.3-1.207-1.02-1.995-2.265-2.22-1-.178-1.985-.187-2.977.038-1.163.266-1.873 1.008-2.116 2.133-.34 1.586-.35 3.194-.032 4.79.155.78.534 1.44 1.252 1.865 3 1.782 6.217.09 6.335-3.34l.001-.87c-.007-.803-.002-1.607-.198-2.396z" fill="#e4002b"/><path d="M23.94 20l-.003.616c-.118 3.43-3.334 5.124-6.335 3.34-.718-.426-1.097-1.084-1.252-1.865-.14-.696-.215-1.394-.23-2.092h2.552l.03 1.078c.047.975.47 1.33 1.382 1.348.92.018 1.245-.52 1.313-1.316l.07-1.4-.014.3z" fill="#d10926"/><path d="M30.738 23.953l-2.53-3.54c-.123-.17-.177-.42-.528-.45l.015 3.738c.04.857-.5.772-1.006.71-.48-.058-1.25.382-1.24-.675l.024-7.833c.001-.286-.055-.636.37-.65.624-.02 1.302-.226 1.756.465l2.262 3.373.554.77.25-.043-.02-3.73c-.07-1.04.59-.84 1.184-.87.647-.033 1.078-.002 1.054.894l-.02 7.155c-.004.39.303 1.025-.356 1.125-.602.09-1.3.23-1.77-.44z" fill="#e4002b"/><path d="M32.863 23.184c-.004.39.303 1.024-.356 1.124-.602.092-1.3.23-1.77-.44l-2.53-3.542c-.074-.102-.123-.233-.226-.328h4.878l.004 3.185zM27.678 20l.001-.12.015 3.738c.04.857-.5.772-1.006.71-.48-.058-1.25.383-1.24-.675L25.47 20h2.21z" fill="#d10926"/></g></g></svg>